<svg width="320" height="107" viewBox="0 0 320 107" fill="none" xmlns="http://www.w3.org/2000/svg">
<path d="M82.7824 66.5244H87.6232V56.5817H90.062C91.4293 56.5817 91.9836 56.7694 92.5377 57.8199L95.9004 64.5358C96.7502 66.2242 97.6002 66.5244 99.5587 66.5244H102.108V62.3597H101.628C100.815 62.3597 100.187 62.2847 99.7803 61.4967L97.2307 56.3567C96.7502 55.3811 95.9373 55.006 95.9373 55.006V54.9309C97.0459 54.7058 100.298 52.7172 100.298 47.9148C100.298 42.8873 96.935 39.8856 92.1312 39.8856H80.3806V44.0503H82.7824V66.5244ZM87.6232 52.3796V44.0503H91.5401C93.9049 44.0503 95.3461 45.551 95.3461 48.1774C95.3461 50.8413 93.9049 52.3796 91.4661 52.3796H87.6232ZM103.402 56.9569C103.402 62.3972 107.282 66.9746 113.526 66.9746C118.219 66.9746 121.102 64.0856 121.102 64.0856L119.143 60.784C119.143 60.784 116.889 62.9225 113.859 62.9225C111.014 62.9225 108.575 61.1591 108.205 57.7823H121.212C121.212 57.7823 121.323 56.5817 121.323 56.0189C121.323 50.9539 118.367 46.9393 112.972 46.9393C107.318 46.9393 103.402 51.0664 103.402 56.9569ZM108.353 54.4806C108.87 52.0795 110.57 50.6161 112.972 50.6161C114.894 50.6161 116.446 52.192 116.519 54.4806H108.353ZM125.707 66.5244H130.401V58.1576H131.435C132.025 58.1576 132.802 58.195 133.172 58.8703L136.312 64.8735C137.052 66.2617 137.679 66.5244 139.269 66.5244H142.743V62.5098H141.485C140.599 62.5098 140.229 62.3597 139.934 61.7969L137.79 57.6698C137.125 56.4316 136.46 56.169 136.46 56.169V56.094C136.46 56.094 137.052 55.7939 137.865 54.5933L142.631 47.3895H137.42L133.578 53.4301C133.172 54.0305 132.395 54.143 131.804 54.143H130.401V42.0618C130.401 40.2983 129.624 39.8856 127.887 39.8856H123.416V43.9378H124.894C125.412 43.9378 125.707 44.2004 125.707 44.7632V66.5244ZM146.206 59.6958C146.206 64.9111 148.681 66.9746 152.709 66.9746C155.961 66.9746 158.325 64.986 159.213 62.9976H159.287C159.287 62.9976 159.249 63.4103 159.249 63.8604V64.3857C159.249 65.7365 160.1 66.5244 161.726 66.5244H166.048V62.5098H164.571C164.054 62.5098 163.758 62.2096 163.758 61.6844V47.3895H159.065V56.169C159.065 59.5832 157.18 62.6223 153.781 62.6223C151.453 62.6223 150.861 61.0466 150.861 58.7204V49.9034C150.861 48.1774 150.123 47.3895 148.386 47.3895H143.915V51.4417H145.393C145.91 51.4417 146.206 51.7043 146.206 52.267V59.6958ZM169.843 66.5244H174.5V58.9455C174.5 57.8199 174.648 56.7694 174.906 55.8314C175.756 52.9799 178.047 51.8168 180.042 51.8168C180.707 51.8168 181.188 51.8918 181.188 51.8918V47.2019C181.188 47.2019 180.745 47.1269 180.338 47.1269C177.455 47.1269 175.202 49.303 174.351 52.0419H174.278C174.278 52.0419 174.351 51.5542 174.351 50.8413V49.7157C174.351 48.1024 173.501 47.3895 171.839 47.3895H167.552V51.4417H169.03C169.548 51.4417 169.843 51.7043 169.843 52.267V66.5244ZM182.502 56.9569C182.502 62.3972 186.381 66.9746 192.626 66.9746C197.319 66.9746 200.201 64.0856 200.201 64.0856L198.243 60.784C198.243 60.784 195.989 62.9225 192.959 62.9225C190.114 62.9225 187.675 61.1591 187.305 57.7823H200.312C200.312 57.7823 200.423 56.5817 200.423 56.0189C200.423 50.9539 197.467 46.9393 192.072 46.9393C186.419 46.9393 182.502 51.0664 182.502 56.9569ZM187.453 54.4806C187.97 52.0795 189.671 50.6161 192.072 50.6161C193.993 50.6161 195.546 52.192 195.619 54.4806H187.453ZM204.955 66.5244H209.611V57.7449C209.611 56.8443 209.722 55.9814 209.981 55.1935C210.646 52.9049 212.531 51.2916 215.043 51.2916C217.408 51.2916 217.999 52.8673 217.999 55.1935V63.973C217.999 65.7739 218.737 66.5244 220.512 66.5244H224.982V62.5098H223.505C222.988 62.5098 222.692 62.2096 222.692 61.6844V54.218C222.692 49.1529 220.29 46.9393 216.114 46.9393C212.308 46.9393 210.276 49.303 209.463 50.9163H209.389C209.389 50.9163 209.463 50.5036 209.463 50.0909V49.5281C209.463 48.1774 208.65 47.3895 206.988 47.3895H202.664V51.4417H204.142C204.66 51.4417 204.955 51.7043 204.955 52.267V66.5244ZM226.815 56.9569C226.815 62.5098 230.807 66.9746 237.015 66.9746C242.151 66.9746 244.959 63.5228 244.959 63.5228L243.001 60.2211C243.001 60.2211 240.635 62.81 237.421 62.81C234.391 62.81 231.545 60.8214 231.545 56.9195C231.545 53.4677 233.874 50.9539 237.126 50.9539C238.271 50.9539 239.822 51.4041 239.822 52.4546V53.5051H243.962V51.254C243.962 47.9523 239.565 46.9393 237.126 46.9393C230.659 46.9393 226.815 51.5542 226.815 56.9569ZM249.58 44.2755H253.682V39.8856H249.58V44.2755ZM244.814 70.1636V74.1782C244.814 74.1782 245.368 74.2908 246.217 74.2908C248.804 74.2908 254.088 73.5029 254.088 67.0872V49.9408C254.088 48.1774 253.35 47.3895 251.576 47.3895H247.105V51.4417H248.583C249.101 51.4417 249.396 51.7043 249.396 52.267V66.712C249.396 69.826 246.957 70.2388 245.627 70.2388C245.146 70.2388 244.814 70.1636 244.814 70.1636ZM257.994 61.009C257.994 64.836 261.06 66.9746 264.423 66.9746C268.674 66.9746 270.114 63.5978 270.114 63.5978H270.188C270.188 63.5978 270.152 63.9356 270.152 64.4232C270.152 65.5488 270.816 66.5244 272.553 66.5244H276.765V62.5098H275.287C274.771 62.5098 274.474 62.2096 274.474 61.6844V54.5557C274.474 50.2785 272.627 46.9393 266.344 46.9393C264.387 46.9393 259.435 47.3144 259.435 50.8789V52.9049H263.796V51.8918C263.796 50.8413 265.458 50.6161 266.308 50.6161C268.71 50.6161 269.782 51.6292 269.782 54.3681V54.5182H269.19C266.124 54.5182 257.994 55.006 257.994 61.009ZM262.724 60.784C262.724 58.12 266.603 57.7823 269.042 57.7823H269.855V58.2326C269.855 60.5587 268.081 63.2602 265.569 63.2602C263.648 63.2602 262.724 62.0595 262.724 60.784Z" fill="#3A3A3A"/>
<path d="M278.896 66.4585H280.725V64.565H278.896V66.4585ZM282.47 61.8076C282.47 64.6018 284.521 66.6791 287.459 66.6791C289.935 66.6791 291.264 65.0797 291.264 65.0797L290.489 63.8113C290.489 63.8113 289.343 65.0982 287.589 65.0982C285.852 65.0982 284.299 63.9032 284.299 61.7892C284.299 59.8222 285.668 58.4619 287.497 58.4619C288.179 58.4619 289.232 58.756 289.232 59.4177V59.9326H290.858V58.9766C290.858 57.3956 288.623 56.936 287.497 56.936C284.485 56.936 282.47 59.0684 282.47 61.8076ZM292.323 61.7892C292.323 64.6201 294.558 66.6791 297.348 66.6791C300.137 66.6791 302.391 64.6201 302.391 61.7892C302.391 58.9766 300.137 56.936 297.348 56.936C294.558 56.936 292.323 58.9766 292.323 61.7892ZM294.151 61.7892C294.151 59.859 295.593 58.4803 297.348 58.4803C299.121 58.4803 300.562 59.859 300.562 61.7892C300.562 63.7378 299.121 65.1348 297.348 65.1348C295.593 65.1348 294.151 63.7378 294.151 61.7892ZM304.63 66.4585H306.421V62.2121C306.421 61.7892 306.459 61.3847 306.551 61.0171C306.902 59.6936 307.862 58.5537 309.229 58.5537C310.652 58.5537 310.836 59.6752 310.836 60.8884V66.4585H312.628V62.2121C312.628 61.734 312.684 61.3296 312.776 60.9436C313.109 59.6752 314.107 58.5537 315.4 58.5537C316.785 58.5537 317.044 59.5833 317.044 60.8884V65.2819C317.044 66.1092 317.395 66.4585 318.227 66.4585H320V64.9326H319.243C318.984 64.9326 318.836 64.804 318.836 64.5282V60.5024C318.836 58.131 317.857 56.936 315.751 56.936C314.235 56.936 312.943 57.9288 312.425 59.0501H312.389C312.074 57.6529 311.169 56.936 309.58 56.936C308.121 56.936 306.827 57.9839 306.384 59.0686H306.348C306.348 59.0686 306.365 58.8296 306.365 58.5354V58.1861C306.365 57.506 305.997 57.1567 305.184 57.1567H303.465V58.6825H304.223C304.481 58.6825 304.63 58.8111 304.63 59.0869V66.4585Z" fill="#3A3A3A"/>
<rect x="33.1874" y="67.8969" width="22.8354" height="22.8353" fill="#A26BE6"/>
<rect x="33.1874" y="16.1368" width="22.8354" height="22.8353" fill="#A26BE6"/>
<rect x="0.607211" y="32.2721" width="42.3251" height="42.3248" fill="#8D49B0" stroke="white" stroke-width="1.21442"/>
<rect x="54.8041" y="87.0777" width="7.00459" height="7.00455" fill="#B977DC" stroke="white" stroke-width="0.607211"/>
<rect x="54.8041" y="12.7869" width="7.00459" height="7.00455" fill="#B977DC" stroke="white" stroke-width="0.607211"/>
<path d="M74.5956 0H63.9391V10.6565H74.5956V0Z" fill="#844DC8"/>
<path d="M74.5956 96.2126H63.9391V106.869H74.5956V96.2126Z" fill="#844DC8"/>
<path d="M84.9477 16.4414H80.3806V21.0085H84.9477V16.4414Z" fill="#B145D3"/>
<path d="M84.9477 85.8606H80.3806V90.4276H84.9477V85.8606Z" fill="#B145D3"/>
</svg>
